<svg width="26" height="22" viewBox="0 0 26 22" fill="none" xmlns="http://www.w3.org/2000/svg">
<path d="M15.2835 7.66575C15.0663 7.66575 14.8897 7.48947 14.8897 7.272V6.60285C14.8897 6.38567 15.066 6.20911 15.2835 6.20911C15.5006 6.20911 15.6772 6.38538 15.6772 6.60285V7.272C15.6772 7.48947 15.5007 7.66575 15.2835 7.66575Z" fill="#103E13"/>
<path d="M13.628 7.66575C13.4108 7.66575 13.2343 7.48947 13.2343 7.272V6.60285C13.2343 6.38567 13.4106 6.20911 13.628 6.20911C13.8452 6.20911 14.0218 6.38538 14.0218 6.60285V7.272C14.0215 7.48947 13.8455 7.66575 13.628 7.66575Z" fill="#103E13"/>
<path d="M11.9727 7.66575C11.7555 7.66575 11.579 7.48947 11.579 7.272V6.60285C11.579 6.38567 11.7553 6.20911 11.9727 6.20911C12.1899 6.20911 12.3665 6.38538 12.3665 6.60285V7.272C12.3665 7.48947 12.1902 7.66575 11.9727 7.66575Z" fill="#103E13"/>
<path d="M15.2835 10.4021C15.0663 10.4021 14.8897 10.2258 14.8897 10.0084V9.33949C14.8897 9.1223 15.066 8.94574 15.2835 8.94574C15.5006 8.94574 15.6772 9.12202 15.6772 9.33949V10.0084C15.6772 10.2258 15.5007 10.4021 15.2835 10.4021Z" fill="#103E13"/>
<path d="M13.628 10.4021C13.4108 10.4021 13.2343 10.2258 13.2343 10.0084V9.33949C13.2343 9.1223 13.4106 8.94574 13.628 8.94574C13.8452 8.94574 14.0218 9.12202 14.0218 9.33949V10.0084C14.0215 10.2258 13.8455 10.4021 13.628 10.4021Z" fill="#103E13"/>
<path d="M11.9727 10.4021C11.7555 10.4021 11.579 10.2258 11.579 10.0084V9.33949C11.579 9.1223 11.7553 8.94574 11.9727 8.94574C12.1899 8.94574 12.3665 9.12202 12.3665 9.33949V10.0084C12.3665 10.2258 12.1902 10.4021 11.9727 10.4021Z" fill="#103E13"/>
<path d="M15.2835 13.1386C15.0663 13.1386 14.8897 12.9623 14.8897 12.7448V12.0757C14.8897 11.8585 15.066 11.6819 15.2835 11.6819C15.5006 11.6819 15.6772 11.8582 15.6772 12.0757V12.7448C15.6772 12.9623 15.5007 13.1386 15.2835 13.1386Z" fill="#103E13"/>
<path d="M13.628 13.1386C13.4108 13.1386 13.2343 12.9623 13.2343 12.7448V12.0757C13.2343 11.8585 13.4106 11.6819 13.628 11.6819C13.8452 11.6819 14.0218 11.8582 14.0218 12.0757V12.7448C14.0215 12.9623 13.8455 13.1386 13.628 13.1386Z" fill="#103E13"/>
<path d="M11.9727 13.1386C11.7555 13.1386 11.579 12.9623 11.579 12.7448V12.0757C11.579 11.8585 11.7553 11.6819 11.9727 11.6819C12.1899 11.6819 12.3665 11.8582 12.3665 12.0757V12.7448C12.3665 12.9623 12.1902 13.1386 11.9727 13.1386Z" fill="#103E13"/>
<path d="M15.2835 15.8744C15.0663 15.8744 14.8897 15.6981 14.8897 15.4807V14.8115C14.8897 14.5943 15.066 14.4178 15.2835 14.4178C15.5006 14.4178 15.6772 14.5941 15.6772 14.8115V15.4807C15.6772 15.6981 15.5007 15.8744 15.2835 15.8744Z" fill="#103E13"/>
<path d="M13.628 15.8744C13.4108 15.8744 13.2343 15.6981 13.2343 15.4807V14.8115C13.2343 14.5943 13.4106 14.4178 13.628 14.4178C13.8452 14.4178 14.0218 14.5941 14.0218 14.8115V15.4807C14.0215 15.6981 13.8455 15.8744 13.628 15.8744Z" fill="#103E13"/>
<path d="M11.9727 15.8744C11.7555 15.8744 11.579 15.6981 11.579 15.4807V14.8115C11.579 14.5943 11.7553 14.4178 11.9727 14.4178C12.1899 14.4178 12.3665 14.5941 12.3665 14.8115V15.4807C12.3665 15.6981 12.1902 15.8744 11.9727 15.8744Z" fill="#103E13"/>
<path d="M15.2835 18.6108C15.0663 18.6108 14.8897 18.4345 14.8897 18.217V17.5482C14.8897 17.331 15.066 17.1544 15.2835 17.1544C15.5006 17.1544 15.6772 17.3307 15.6772 17.5482V18.217C15.6772 18.4342 15.5007 18.6108 15.2835 18.6108Z" fill="#103E13"/>
<path d="M13.628 18.6108C13.4108 18.6108 13.2343 18.4345 13.2343 18.217V17.5482C13.2343 17.331 13.4106 17.1544 13.628 17.1544C13.8452 17.1544 14.0218 17.3307 14.0218 17.5482V18.217C14.0215 18.4342 13.8455 18.6108 13.628 18.6108Z" fill="#103E13"/>
<path d="M11.9727 18.6108C11.7555 18.6108 11.579 18.4345 11.579 18.217L11.5793 17.5482C11.5793 17.331 11.7555 17.1544 11.973 17.1544C12.1902 17.1544 12.3668 17.3307 12.3668 17.5482V18.217C12.3665 18.4342 12.1902 18.6108 11.9727 18.6108Z" fill="#103E13"/>
<path d="M0.724543 21.334C0.724543 21.5512 0.900822 21.7277 1.11829 21.7277H25.0963C25.3135 21.7277 25.4901 21.5514 25.4901 21.334C25.4901 21.1168 25.3138 20.9402 25.0963 20.9402H24.3684V9.63516C24.3684 9.41797 24.1922 9.24141 23.9747 9.24141L17.546 9.24168V1.09132C17.546 0.953484 17.4741 0.82608 17.3565 0.754684C17.2393 0.683021 17.0927 0.678628 16.9708 0.742054L9.66179 4.54745C9.53136 4.61528 9.45009 4.74982 9.45009 4.89672V12.0159H2.3766C2.15941 12.0159 1.98285 12.1922 1.98285 12.4097V20.9403H1.11741C0.900225 20.94 0.724213 21.1163 0.724213 21.3338L0.724543 21.334ZM17.5461 15.2051H23.5813V20.9406L17.5461 20.9403V15.2051ZM17.5461 12.469H23.5813V14.4179L17.5461 14.4177V12.469ZM17.5461 10.0288H23.5813V11.682H17.5461V10.0288ZM10.2372 5.13581L16.7584 1.74035V20.9399H10.2372V5.13581ZM4.71678 17.7954C4.71678 16.9783 5.36423 16.3132 6.16023 16.3132C6.95622 16.3132 7.60396 16.978 7.60396 17.7954V20.9404H4.71678V17.7954ZM2.77032 12.8033H9.44997V20.9403H8.39144V17.7953C8.39144 16.544 7.3909 15.5259 6.16023 15.5259C4.93012 15.5259 3.92958 16.5437 3.92958 17.7953V20.9403H2.77032V12.8033Z" fill="#103E13"/>
</svg>
