<svg width="35" height="34" viewBox="0 0 35 34" fill="none" xmlns="http://www.w3.org/2000/svg">
<g clip-path="url(#clip0_0_1283)">
<path d="M12.4102 6.3866C14.0518 6.3867 15.6539 6.8917 16.999 7.83289C18.3443 8.7742 19.3672 10.1068 19.9297 11.6493C20.4922 13.1917 20.5669 14.8697 20.1436 16.4559C19.7201 18.0423 18.8189 19.4605 17.5625 20.5175L17.1396 20.8729L17.6436 21.1005C19.7131 22.037 21.4937 23.5112 22.8008 25.369L22.8057 25.3759L22.8115 25.3827C22.9131 25.5128 22.9872 25.6626 23.0293 25.8221C23.0713 25.9817 23.0799 26.1482 23.0557 26.3114C23.0314 26.4746 22.9742 26.6309 22.8877 26.7714C22.8012 26.9118 22.6876 27.0338 22.5527 27.1288C22.4179 27.2237 22.2648 27.2899 22.1035 27.3241C21.9421 27.3582 21.7751 27.3592 21.6133 27.327C21.4514 27.2948 21.2972 27.23 21.1611 27.1366H21.1621C21.0261 27.0432 20.9095 26.9235 20.8213 26.7841L20.8174 26.7772L20.8125 26.7704L20.6309 26.5204C19.7068 25.285 18.5157 24.2721 17.1445 23.5594C15.6822 22.7994 14.0582 22.4023 12.4102 22.4022C10.7619 22.4022 9.13733 22.7993 7.6748 23.5594C6.21224 24.3196 4.95399 25.4214 4.00684 26.7704L4.00586 26.7714C3.89454 26.9311 3.74597 27.0614 3.57324 27.1512C3.40043 27.2412 3.20848 27.2885 3.01367 27.288H3.01172C2.76183 27.2888 2.51776 27.2106 2.31445 27.0653L2.3125 27.0643L2.21777 26.9901C2.00629 26.807 1.86371 26.5552 1.81543 26.2772C1.76718 25.9992 1.81669 25.7143 1.9541 25.4706L2.01855 25.369C3.32562 23.5112 5.10627 22.037 7.17578 21.1005L7.67969 20.8729L7.25684 20.5175C6.00041 19.4605 5.09924 18.0423 4.67578 16.4559C4.25241 14.8697 4.32716 13.1917 4.88965 11.6493C5.45218 10.1068 6.47508 8.7742 7.82031 7.83289C9.16554 6.89161 10.7683 6.3866 12.4102 6.3866ZM23.0459 6.39636H23.0479C24.6906 6.39167 26.2952 6.89414 27.6426 7.83386C28.9899 8.77364 30.015 10.1061 30.5781 11.6493C31.1411 13.1923 31.2154 14.8714 30.79 16.4579C30.3645 18.0446 29.4599 19.462 28.2002 20.5165L27.7754 20.8719L28.2803 21.1005C30.3498 22.037 32.1304 23.5112 33.4375 25.369L33.4395 25.371C33.5322 25.5008 33.5982 25.648 33.6338 25.8036C33.6693 25.9592 33.6738 26.1209 33.6465 26.2782C33.6192 26.4356 33.5606 26.586 33.4746 26.7206C33.3887 26.8552 33.2768 26.9714 33.1455 27.0624L33.1416 27.0653C32.9383 27.2106 32.6942 27.2878 32.4443 27.287C32.2492 27.2857 32.0569 27.2384 31.8838 27.1483C31.7106 27.0581 31.5612 26.9278 31.4482 26.7684C30.4992 25.4223 29.241 24.3234 27.7793 23.5643C26.4087 22.8526 24.8965 22.4589 23.3555 22.411L23.0469 22.4061L22.9258 22.4003C22.6472 22.3725 22.3853 22.2493 22.1855 22.0497C21.9571 21.8213 21.8282 21.5114 21.8281 21.1884C21.8281 20.8653 21.9571 20.5555 22.1855 20.327C22.414 20.0987 22.7239 19.9706 23.0469 19.9706C24.5236 19.9705 25.9402 19.383 26.9844 18.3387C28.0285 17.2945 28.6152 15.8779 28.6152 14.4012C28.6151 12.9245 28.0286 11.508 26.9844 10.4637C26.0053 9.48462 24.6987 8.90792 23.3223 8.83972L23.0469 8.83289C22.5378 8.83195 22.0306 8.90221 21.541 9.04187L21.4199 9.07214C21.3014 9.09499 21.18 9.09969 21.0596 9.08679C20.8989 9.06958 20.7431 9.02116 20.6016 8.94324C20.4602 8.86538 20.3357 8.76005 20.2354 8.63367C20.1349 8.50712 20.0604 8.36146 20.0166 8.20593C19.9728 8.05042 19.9608 7.88776 19.9805 7.72742C20.0002 7.56713 20.0518 7.41259 20.1318 7.27234C20.212 7.13204 20.3192 7.00849 20.4473 6.91003C20.5753 6.81169 20.7219 6.73942 20.8779 6.69812L20.8838 6.69714C21.587 6.49695 22.3148 6.39515 23.0459 6.39636ZM13.4961 8.94031C12.4159 8.72544 11.2958 8.83524 10.2783 9.25671C9.26094 9.67818 8.39113 10.3919 7.7793 11.3075C7.16748 12.2231 6.84089 13.3 6.84082 14.4012C6.84082 15.8779 7.42763 17.2945 8.47168 18.3387C9.51599 19.3831 10.9333 19.9706 12.4102 19.9706C13.5111 19.9705 14.5874 19.6437 15.5029 19.0321C16.4187 18.4202 17.1332 17.5496 17.5547 16.5321C17.976 15.5147 18.0859 14.3953 17.8711 13.3153C17.6562 12.2352 17.1264 11.2425 16.3477 10.4637C15.5689 9.68499 14.5762 9.15519 13.4961 8.94031Z" fill="#4CAF4F" stroke="#4CAF4F" stroke-width="0.696069"/>
</g>
<defs>
<clipPath id="clip0_0_1283">
<rect width="33.4113" height="33.4113" fill="white" transform="translate(0.924561 0.306152)"/>
</clipPath>
</defs>
</svg>
